G04 Layer: BottomSolderMaskLayer*
G04 EasyEDA v6.4.25, 2021-10-17T04:34:47+09:00*
G04 29e239aed29846d893758c3e788ce2c8,c0f7d9c09faf4ba5b776d912e3b4b3b7,10*
G04 Gerber Generator version 0.2*
G04 Scale: 100 percent, Rotated: No, Reflected: No *
G04 Dimensions in millimeters *
G04 leading zeros omitted , absolute positions ,4 integer and 5 decimal *
%FSLAX45Y45*%
%MOMM*%

%ADD26C,1.5113*%
%ADD27C,1.7016*%
%ADD29C,1.9000*%
%ADD30C,1.0032*%
%ADD31C,1.7272*%
%ADD33C,2.0832*%
%ADD34C,1.8532*%

%LPD*%
G36*
X1486662Y7023608D02*
G01*
X1486662Y7174737D01*
X1637792Y7174737D01*
X1637792Y7023608D01*
G37*
D26*
G01*
X1816100Y7099300D03*
G01*
X2070100Y7099300D03*
G01*
X2324100Y7099300D03*
D27*
G01*
X8140700Y11173205D03*
G01*
X8140700Y10823194D03*
G01*
X7329906Y7669199D03*
G01*
X7579893Y7469200D03*
G01*
X6491706Y7656499D03*
G01*
X6741693Y7456500D03*
D29*
G01*
X7858607Y9927386D03*
G01*
X9108617Y9927386D03*
G01*
X7858607Y9427387D03*
G01*
X9108617Y9427387D03*
G01*
X7871307Y8530386D03*
G01*
X9121317Y8530386D03*
G01*
X7871307Y8030387D03*
G01*
X9121317Y8030387D03*
D30*
G01*
X3935602Y7178700D03*
G01*
X4951602Y7178700D03*
G01*
X4697602Y7178700D03*
G01*
X4443602Y7178700D03*
G01*
X4189602Y7178700D03*
G01*
X3935602Y4998694D03*
G01*
X4951602Y4998694D03*
G01*
X4697602Y4998694D03*
G01*
X4443602Y4998694D03*
G01*
X4189602Y4998694D03*
G01*
X5459602Y4998694D03*
G01*
X5205602Y4998694D03*
G01*
X5459602Y7178700D03*
G01*
X5205602Y7178700D03*
D31*
G01*
X9327794Y5906998D03*
G01*
X9327794Y6160998D03*
G01*
X9327794Y6414998D03*
G01*
X9327794Y6668998D03*
G01*
X6377787Y5657011D03*
G01*
X6377787Y5911011D03*
G01*
X6377787Y6165011D03*
G01*
X6377787Y6419011D03*
G01*
X9327794Y5652998D03*
G01*
X3638041Y12498324D03*
G01*
X3892041Y12498324D03*
G01*
X4146041Y12498324D03*
G36*
X4313681Y12411963D02*
G01*
X4313681Y12584684D01*
X4486402Y12584684D01*
X4486402Y12411963D01*
G37*
G36*
X3551681Y7981950D02*
G01*
X3551681Y8154670D01*
X3724402Y8154670D01*
X3724402Y7981950D01*
G37*
G01*
X3892041Y8068310D03*
G01*
X4146041Y8068310D03*
G01*
X4400041Y8068310D03*
D33*
G01*
X1765300Y3632200D03*
G01*
X1765300Y3378200D03*
G01*
X1765300Y3124200D03*
G01*
X1765300Y2870200D03*
D34*
G01*
X1066800Y12649200D03*
G01*
X1320800Y12649200D03*
G01*
X1066800Y12395200D03*
G01*
X1320800Y12395200D03*
G01*
X1054100Y12141200D03*
G01*
X1320800Y12141200D03*
G01*
X1066800Y11887200D03*
G01*
X1320800Y11874500D03*
G01*
X1066800Y11633200D03*
G01*
X1320800Y11633200D03*
G01*
X1066800Y11379200D03*
G01*
X1320800Y11379200D03*
G01*
X1066800Y11125200D03*
G01*
X1320800Y11125200D03*
G01*
X1066800Y10871200D03*
G01*
X1320800Y10871200D03*
G01*
X1066800Y10617200D03*
G01*
X1333500Y10617200D03*
G01*
X1066800Y10363200D03*
G01*
X1320800Y10363200D03*
G01*
X1066800Y10109200D03*
G01*
X1320800Y10109200D03*
G01*
X1066800Y9855200D03*
G01*
X1320800Y9855200D03*
G01*
X1066800Y9601200D03*
G01*
X1333500Y9601200D03*
G01*
X1066800Y9347200D03*
G01*
X1320800Y9347200D03*
G01*
X1066800Y9093200D03*
G01*
X1320800Y9093200D03*
G01*
X1066800Y8839200D03*
G01*
X1320800Y8839200D03*
G01*
X1066800Y8585200D03*
G01*
X1320800Y8585200D03*
G01*
X1066800Y8331200D03*
G01*
X1320800Y8331200D03*
G01*
X1066800Y8077200D03*
G01*
X1320800Y8077200D03*
G01*
X7150100Y12649200D03*
G01*
X7404100Y12649200D03*
G01*
X7137400Y12395200D03*
G01*
X7404100Y12395200D03*
G01*
X7150100Y12141200D03*
G01*
X7404100Y12141200D03*
G01*
X7150100Y11887200D03*
G01*
X7404100Y11887200D03*
G01*
X7150100Y11633200D03*
G01*
X7404100Y11633200D03*
G01*
X7150100Y11379200D03*
G01*
X7404100Y11379200D03*
G01*
X7150100Y11125200D03*
G01*
X7404100Y11125200D03*
G01*
X7150100Y10871200D03*
G01*
X7404100Y10871200D03*
G01*
X7150100Y10617200D03*
G01*
X7404100Y10617200D03*
G01*
X7150100Y10363200D03*
G01*
X7404100Y10363200D03*
G01*
X7150100Y10109200D03*
G01*
X7404100Y10109200D03*
G01*
X7150100Y9855200D03*
G01*
X7404100Y9855200D03*
G01*
X7150100Y9601200D03*
G01*
X7404100Y9601200D03*
G01*
X7150100Y9347200D03*
G01*
X7404100Y9347200D03*
G01*
X7150100Y9093200D03*
G01*
X7404100Y9093200D03*
G01*
X7150100Y8839200D03*
G01*
X7404100Y8839200D03*
G01*
X7150100Y8585200D03*
G01*
X7404100Y8585200D03*
G01*
X7150100Y8331200D03*
G01*
X7404100Y8331200D03*
G01*
X7150100Y8077200D03*
G01*
X7416800Y8077200D03*
M02*
