M48
METRIC,LZ,000.000
;FILE_FORMAT=3:3
;TYPE=PLATED
;Layer: Drill PTH
;EasyEDA v6.4.25, 2021-10-17T04:34:47+09:00
;29e239aed29846d893758c3e788ce2c8,c0f7d9c09faf4ba5b776d912e3b4b3b7,10
;Gerber Generator version 0.2
;Holesize 1 = 0.305 mm
T01C0.305
;Holesize 2 = 0.600 mm
T02C0.600
;Holesize 3 = 0.801 mm
T03C0.801
;Holesize 4 = 0.901 mm
T04C0.901
;Holesize 5 = 0.915 mm
T05C0.915
;Holesize 6 = 1.000 mm
T06C1.000
;Holesize 7 = 1.200 mm
T07C1.200
%
G05
G90
T01
X068453Y097028
X077597Y069596
T02
X039356Y071787
X049516Y071787
X046976Y071787
X044436Y071787
X041896Y071787
X039356Y049987
X049516Y049987
X046976Y049987
X044436Y049987
X041896Y049987
X054596Y049987
X052056Y049987
X054596Y071787
X052056Y071787
T03
X015618Y070993G85X015624Y070993
X018158Y070993G85X018164Y070993
X020698Y070993G85X020704Y070993
X023238Y070993G85X023244Y070993
T04
X010668Y126492
X013208Y126492
X010668Y123952
X013208Y123952
X010541Y121412
X013208Y121412
X010668Y118872
X013208Y118745
X010668Y116332
X013208Y116332
X010668Y113792
X013208Y113792
X010668Y111252
X013208Y111252
X010668Y108712
X013208Y108712
X010668Y106172
X013335Y106172
X010668Y103632
X013208Y103632
X010668Y101092
X013208Y101092
X010668Y098552
X013208Y098552
X010668Y096012
X013335Y096012
X010668Y093472
X013208Y093472
X010668Y090932
X013208Y090932
X010668Y088392
X013208Y088392
X010668Y085852
X013208Y085852
X010668Y083312
X013208Y083312
X010668Y080772
X013208Y080772
X071501Y126492
X074041Y126492
X071374Y123952
X074041Y123952
X071501Y121412
X074041Y121412
X071501Y118872
X074041Y118872
X071501Y116332
X074041Y116332
X071501Y113792
X074041Y113792
X071501Y111252
X074041Y111252
X071501Y108712
X074041Y108712
X071501Y106172
X074041Y106172
X071501Y103632
X074041Y103632
X071501Y101092
X074041Y101092
X071501Y098552
X074041Y098552
X071501Y096012
X074041Y096012
X071501Y093472
X074041Y093472
X071501Y090932
X074041Y090932
X071501Y088392
X074041Y088392
X071501Y085852
X074041Y085852
X071501Y083312
X074041Y083312
X071501Y080772
X074168Y080772
T05
X093278Y059070
X093278Y061610
X093278Y064150
X093278Y066690
X063778Y056570
X063778Y059110
X063778Y061650
X063778Y064190
X093278Y056530
X036380Y124983
X038920Y124983
X041460Y124983
X044000Y124984
X036380Y080684
X038920Y080683
X041460Y080683
X044000Y080683
T06
X081407Y111732
X081407Y108232
X073299Y076692
X075799Y074692
X064917Y076565
X067417Y074565
T07
X078586Y099274
X091086Y099274
X078586Y094274
X091086Y094274
X078713Y085304
X091213Y085304
X078713Y080304
X091213Y080304
X017653Y036322
X017653Y033782
X017653Y031242
X017653Y028702
M30
