G04 Layer: TopSilkLayer*
G04 EasyEDA v6.4.25, 2021-10-17T04:34:47+09:00*
G04 29e239aed29846d893758c3e788ce2c8,c0f7d9c09faf4ba5b776d912e3b4b3b7,10*
G04 Gerber Generator version 0.2*
G04 Scale: 100 percent, Rotated: No, Reflected: No *
G04 Dimensions in millimeters *
G04 leading zeros omitted , absolute positions ,4 integer and 5 decimal *
%FSLAX45Y45*%
%MOMM*%

%ADD10C,0.2540*%
%ADD22C,0.1270*%
%ADD23C,0.1524*%
%ADD24C,0.2032*%

%LPD*%
D23*
X1943100Y7473187D02*
G01*
X1953513Y7478521D01*
X1969008Y7494015D01*
X1969008Y7385050D01*
X7644891Y11076178D02*
G01*
X7634477Y11070844D01*
X7624063Y11060429D01*
X7618984Y11050270D01*
X7618984Y11029442D01*
X7624063Y11019028D01*
X7634477Y11008613D01*
X7644891Y11003279D01*
X7660640Y10998200D01*
X7686547Y10998200D01*
X7702041Y11003279D01*
X7712456Y11008613D01*
X7722870Y11019028D01*
X7727950Y11029442D01*
X7727950Y11050270D01*
X7722870Y11060429D01*
X7712456Y11070844D01*
X7702041Y11076178D01*
X7639811Y11110468D02*
G01*
X7634477Y11120881D01*
X7618984Y11136376D01*
X7727950Y11136376D01*
X3962400Y7913115D02*
G01*
X3962400Y7804150D01*
X3962400Y7913115D02*
G01*
X4009136Y7913115D01*
X4024629Y7908036D01*
X4029963Y7902702D01*
X4035043Y7892287D01*
X4035043Y7881873D01*
X4029963Y7871460D01*
X4024629Y7866379D01*
X4009136Y7861300D01*
X3962400Y7861300D01*
X3998722Y7861300D02*
G01*
X4035043Y7804150D01*
X4069334Y7892287D02*
G01*
X4079747Y7897621D01*
X4095495Y7913115D01*
X4095495Y7804150D01*
X7429500Y7989315D02*
G01*
X7429500Y7880350D01*
X7429500Y7989315D02*
G01*
X7476236Y7989315D01*
X7491729Y7984236D01*
X7497063Y7978902D01*
X7502143Y7968487D01*
X7502143Y7958073D01*
X7497063Y7947660D01*
X7491729Y7942579D01*
X7476236Y7937500D01*
X7429500Y7937500D01*
X7465822Y7937500D02*
G01*
X7502143Y7880350D01*
X7541768Y7963408D02*
G01*
X7541768Y7968487D01*
X7546847Y7978902D01*
X7552181Y7984236D01*
X7562595Y7989315D01*
X7583170Y7989315D01*
X7593584Y7984236D01*
X7598918Y7978902D01*
X7603997Y7968487D01*
X7603997Y7958073D01*
X7598918Y7947660D01*
X7588504Y7932165D01*
X7536434Y7880350D01*
X7609331Y7880350D01*
X6591300Y7976615D02*
G01*
X6591300Y7867650D01*
X6591300Y7976615D02*
G01*
X6638036Y7976615D01*
X6653529Y7971536D01*
X6658863Y7966202D01*
X6663943Y7955787D01*
X6663943Y7945373D01*
X6658863Y7934960D01*
X6653529Y7929879D01*
X6638036Y7924800D01*
X6591300Y7924800D01*
X6627622Y7924800D02*
G01*
X6663943Y7867650D01*
X6708647Y7976615D02*
G01*
X6765797Y7976615D01*
X6734809Y7934960D01*
X6750304Y7934960D01*
X6760718Y7929879D01*
X6765797Y7924800D01*
X6771131Y7909052D01*
X6771131Y7898637D01*
X6765797Y7883144D01*
X6755384Y7872729D01*
X6739890Y7867650D01*
X6724395Y7867650D01*
X6708647Y7872729D01*
X6703568Y7877810D01*
X6698234Y7888223D01*
X8555951Y10423055D02*
G01*
X8545537Y10433469D01*
X8530043Y10438549D01*
X8509215Y10438549D01*
X8493721Y10433469D01*
X8483307Y10423055D01*
X8483307Y10412641D01*
X8488387Y10402227D01*
X8493721Y10396893D01*
X8504135Y10391813D01*
X8535377Y10381399D01*
X8545537Y10376319D01*
X8550871Y10370985D01*
X8555951Y10360571D01*
X8555951Y10345077D01*
X8545537Y10334663D01*
X8530043Y10329583D01*
X8509215Y10329583D01*
X8493721Y10334663D01*
X8483307Y10345077D01*
X8590241Y10438549D02*
G01*
X8616403Y10329583D01*
X8642311Y10438549D02*
G01*
X8616403Y10329583D01*
X8642311Y10438549D02*
G01*
X8668219Y10329583D01*
X8694127Y10438549D02*
G01*
X8668219Y10329583D01*
X8728417Y10417721D02*
G01*
X8738831Y10423055D01*
X8754579Y10438549D01*
X8754579Y10329583D01*
X8568651Y9026055D02*
G01*
X8558237Y9036469D01*
X8542743Y9041549D01*
X8521915Y9041549D01*
X8506421Y9036469D01*
X8496007Y9026055D01*
X8496007Y9015641D01*
X8501087Y9005227D01*
X8506421Y8999893D01*
X8516835Y8994813D01*
X8548077Y8984399D01*
X8558237Y8979319D01*
X8563571Y8973985D01*
X8568651Y8963571D01*
X8568651Y8948077D01*
X8558237Y8937663D01*
X8542743Y8932583D01*
X8521915Y8932583D01*
X8506421Y8937663D01*
X8496007Y8948077D01*
X8602941Y9041549D02*
G01*
X8629103Y8932583D01*
X8655011Y9041549D02*
G01*
X8629103Y8932583D01*
X8655011Y9041549D02*
G01*
X8680919Y8932583D01*
X8706827Y9041549D02*
G01*
X8680919Y8932583D01*
X8746451Y9015641D02*
G01*
X8746451Y9020721D01*
X8751531Y9031135D01*
X8756865Y9036469D01*
X8767279Y9041549D01*
X8788107Y9041549D01*
X8798267Y9036469D01*
X8803601Y9031135D01*
X8808681Y9020721D01*
X8808681Y9010307D01*
X8803601Y8999893D01*
X8793187Y8984399D01*
X8741117Y8932583D01*
X8814015Y8932583D01*
X4712919Y7534536D02*
G01*
X4712919Y7425570D01*
X4676597Y7534536D02*
G01*
X4749241Y7534536D01*
X4783531Y7534536D02*
G01*
X4783531Y7425570D01*
X4817821Y7534536D02*
G01*
X4817821Y7425570D01*
X4817821Y7534536D02*
G01*
X4859477Y7425570D01*
X4901133Y7534536D02*
G01*
X4859477Y7425570D01*
X4901133Y7534536D02*
G01*
X4901133Y7425570D01*
X4935423Y7534536D02*
G01*
X4935423Y7425570D01*
X4935423Y7534536D02*
G01*
X5002987Y7534536D01*
X4935423Y7482720D02*
G01*
X4976825Y7482720D01*
X4935423Y7425570D02*
G01*
X5002987Y7425570D01*
X5042357Y7508628D02*
G01*
X5042357Y7513708D01*
X5047437Y7524122D01*
X5052771Y7529456D01*
X5063185Y7534536D01*
X5084013Y7534536D01*
X5094427Y7529456D01*
X5099507Y7524122D01*
X5104587Y7513708D01*
X5104587Y7503294D01*
X5099507Y7492880D01*
X5089093Y7477386D01*
X5037277Y7425570D01*
X5109921Y7425570D01*
X7848600Y7303515D02*
G01*
X7848600Y7225537D01*
X7853679Y7210044D01*
X7864093Y7199629D01*
X7879841Y7194550D01*
X7890256Y7194550D01*
X7905750Y7199629D01*
X7916163Y7210044D01*
X7921243Y7225537D01*
X7921243Y7303515D01*
X7955534Y7282687D02*
G01*
X7965947Y7288021D01*
X7981695Y7303515D01*
X7981695Y7194550D01*
X4089400Y12764515D02*
G01*
X4089400Y12686537D01*
X4094479Y12671044D01*
X4104893Y12660629D01*
X4120641Y12655550D01*
X4131056Y12655550D01*
X4146550Y12660629D01*
X4156963Y12671044D01*
X4162043Y12686537D01*
X4162043Y12764515D01*
X4201668Y12738608D02*
G01*
X4201668Y12743687D01*
X4206747Y12754102D01*
X4212081Y12759436D01*
X4222495Y12764515D01*
X4243070Y12764515D01*
X4253484Y12759436D01*
X4258818Y12754102D01*
X4263897Y12743687D01*
X4263897Y12733274D01*
X4258818Y12722860D01*
X4248404Y12707365D01*
X4196334Y12655550D01*
X4269231Y12655550D01*
X4330700Y5627115D02*
G01*
X4330700Y5549137D01*
X4335779Y5533644D01*
X4346193Y5523229D01*
X4361941Y5518150D01*
X4372356Y5518150D01*
X4387850Y5523229D01*
X4398263Y5533644D01*
X4403343Y5549137D01*
X4403343Y5627115D01*
X4489704Y5627115D02*
G01*
X4437634Y5554471D01*
X4515611Y5554471D01*
X4489704Y5627115D02*
G01*
X4489704Y5518150D01*
D24*
X1449070Y2958845D02*
G01*
X1439671Y2967989D01*
X1425955Y2972815D01*
X1407413Y2972815D01*
X1393444Y2967989D01*
X1384300Y2958845D01*
X1384300Y2949702D01*
X1388871Y2940304D01*
X1393444Y2935731D01*
X1402842Y2931160D01*
X1430528Y2922015D01*
X1439671Y2917189D01*
X1444244Y2912618D01*
X1449070Y2903473D01*
X1449070Y2889504D01*
X1439671Y2880360D01*
X1425955Y2875787D01*
X1407413Y2875787D01*
X1393444Y2880360D01*
X1384300Y2889504D01*
X1548637Y2949702D02*
G01*
X1544065Y2958845D01*
X1534921Y2967989D01*
X1525523Y2972815D01*
X1507236Y2972815D01*
X1497837Y2967989D01*
X1488694Y2958845D01*
X1484121Y2949702D01*
X1479550Y2935731D01*
X1479550Y2912618D01*
X1484121Y2898902D01*
X1488694Y2889504D01*
X1497837Y2880360D01*
X1507236Y2875787D01*
X1525523Y2875787D01*
X1534921Y2880360D01*
X1544065Y2889504D01*
X1548637Y2898902D01*
X1579118Y2972815D02*
G01*
X1579118Y2875787D01*
X1579118Y2875787D02*
G01*
X1634489Y2875787D01*
X1449070Y3212845D02*
G01*
X1439671Y3221989D01*
X1425955Y3226815D01*
X1407413Y3226815D01*
X1393444Y3221989D01*
X1384300Y3212845D01*
X1384300Y3203702D01*
X1388871Y3194304D01*
X1393444Y3189731D01*
X1402842Y3185160D01*
X1430528Y3176015D01*
X1439671Y3171189D01*
X1444244Y3166618D01*
X1449070Y3157473D01*
X1449070Y3143504D01*
X1439671Y3134360D01*
X1425955Y3129787D01*
X1407413Y3129787D01*
X1393444Y3134360D01*
X1384300Y3143504D01*
X1479550Y3226815D02*
G01*
X1479550Y3129787D01*
X1479550Y3226815D02*
G01*
X1511807Y3226815D01*
X1525523Y3221989D01*
X1534921Y3212845D01*
X1539494Y3203702D01*
X1544065Y3189731D01*
X1544065Y3166618D01*
X1539494Y3152902D01*
X1534921Y3143504D01*
X1525523Y3134360D01*
X1511807Y3129787D01*
X1479550Y3129787D01*
X1611629Y3226815D02*
G01*
X1574545Y3129787D01*
X1611629Y3226815D02*
G01*
X1648460Y3129787D01*
X1588515Y3162045D02*
G01*
X1634489Y3162045D01*
X1384300Y3480815D02*
G01*
X1421129Y3383787D01*
X1458213Y3480815D02*
G01*
X1421129Y3383787D01*
X1558036Y3457702D02*
G01*
X1553210Y3466845D01*
X1544065Y3475989D01*
X1534921Y3480815D01*
X1516379Y3480815D01*
X1507236Y3475989D01*
X1497837Y3466845D01*
X1493265Y3457702D01*
X1488694Y3443731D01*
X1488694Y3420618D01*
X1493265Y3406902D01*
X1497837Y3397504D01*
X1507236Y3388360D01*
X1516379Y3383787D01*
X1534921Y3383787D01*
X1544065Y3388360D01*
X1553210Y3397504D01*
X1558036Y3406902D01*
X1657604Y3457702D02*
G01*
X1653031Y3466845D01*
X1643887Y3475989D01*
X1634489Y3480815D01*
X1616202Y3480815D01*
X1606804Y3475989D01*
X1597660Y3466845D01*
X1593087Y3457702D01*
X1588515Y3443731D01*
X1588515Y3420618D01*
X1593087Y3406902D01*
X1597660Y3397504D01*
X1606804Y3388360D01*
X1616202Y3383787D01*
X1634489Y3383787D01*
X1643887Y3388360D01*
X1653031Y3397504D01*
X1657604Y3406902D01*
X1453642Y3711702D02*
G01*
X1449070Y3720845D01*
X1439671Y3729989D01*
X1430528Y3734815D01*
X1411986Y3734815D01*
X1402842Y3729989D01*
X1393444Y3720845D01*
X1388871Y3711702D01*
X1384300Y3697731D01*
X1384300Y3674618D01*
X1388871Y3660902D01*
X1393444Y3651504D01*
X1402842Y3642360D01*
X1411986Y3637787D01*
X1430528Y3637787D01*
X1439671Y3642360D01*
X1449070Y3651504D01*
X1453642Y3660902D01*
X1453642Y3674618D01*
X1430528Y3674618D02*
G01*
X1453642Y3674618D01*
X1484121Y3734815D02*
G01*
X1484121Y3637787D01*
X1484121Y3734815D02*
G01*
X1548637Y3637787D01*
X1548637Y3734815D02*
G01*
X1548637Y3637787D01*
X1579118Y3734815D02*
G01*
X1579118Y3637787D01*
X1579118Y3734815D02*
G01*
X1611629Y3734815D01*
X1625345Y3729989D01*
X1634489Y3720845D01*
X1639315Y3711702D01*
X1643887Y3697731D01*
X1643887Y3674618D01*
X1639315Y3660902D01*
X1634489Y3651504D01*
X1625345Y3642360D01*
X1611629Y3637787D01*
X1579118Y3637787D01*
D23*
X4216400Y12891515D02*
G01*
X4216400Y12813537D01*
X4221479Y12798044D01*
X4231893Y12787629D01*
X4247641Y12782550D01*
X4258056Y12782550D01*
X4273550Y12787629D01*
X4283963Y12798044D01*
X4289043Y12813537D01*
X4289043Y12891515D01*
X4333747Y12891515D02*
G01*
X4390897Y12891515D01*
X4359909Y12849860D01*
X4375404Y12849860D01*
X4385818Y12844779D01*
X4390897Y12839700D01*
X4396231Y12823952D01*
X4396231Y12813537D01*
X4390897Y12798044D01*
X4380484Y12787629D01*
X4364990Y12782550D01*
X4349495Y12782550D01*
X4333747Y12787629D01*
X4328668Y12792710D01*
X4323334Y12803124D01*
D24*
X2212086Y11404092D02*
G01*
X2193543Y11422634D01*
X2165858Y11431778D01*
X2129027Y11431778D01*
X2101341Y11422634D01*
X2082800Y11404092D01*
X2082800Y11385550D01*
X2091943Y11367262D01*
X2101341Y11357863D01*
X2119629Y11348720D01*
X2175256Y11330178D01*
X2193543Y11321034D01*
X2202941Y11311889D01*
X2212086Y11293347D01*
X2212086Y11265662D01*
X2193543Y11247120D01*
X2165858Y11237976D01*
X2129027Y11237976D01*
X2101341Y11247120D01*
X2082800Y11265662D01*
X2337815Y11431778D02*
G01*
X2337815Y11237976D01*
X2273045Y11431778D02*
G01*
X2402331Y11431778D01*
X2463291Y11431778D02*
G01*
X2463291Y11237976D01*
X2463291Y11431778D02*
G01*
X2537206Y11237976D01*
X2611120Y11431778D02*
G01*
X2537206Y11237976D01*
X2611120Y11431778D02*
G01*
X2611120Y11237976D01*
X2690622Y11431778D02*
G01*
X2792222Y11431778D01*
X2736850Y11357863D01*
X2764536Y11357863D01*
X2782824Y11348720D01*
X2792222Y11339576D01*
X2801365Y11311889D01*
X2801365Y11293347D01*
X2792222Y11265662D01*
X2773679Y11247120D01*
X2745993Y11237976D01*
X2718308Y11237976D01*
X2690622Y11247120D01*
X2681224Y11256263D01*
X2672079Y11274805D01*
X2871470Y11385550D02*
G01*
X2871470Y11394947D01*
X2880868Y11413489D01*
X2890011Y11422634D01*
X2908554Y11431778D01*
X2945384Y11431778D01*
X2963925Y11422634D01*
X2973070Y11413489D01*
X2982468Y11394947D01*
X2982468Y11376405D01*
X2973070Y11357863D01*
X2954781Y11330178D01*
X2862325Y11237976D01*
X2991611Y11237976D01*
X3052572Y11431778D02*
G01*
X3052572Y11237976D01*
X3052572Y11431778D02*
G01*
X3172713Y11431778D01*
X3052572Y11339576D02*
G01*
X3126486Y11339576D01*
X3326129Y11431778D02*
G01*
X3233674Y11302492D01*
X3372104Y11302492D01*
X3326129Y11431778D02*
G01*
X3326129Y11237976D01*
X3488690Y11431778D02*
G01*
X3460750Y11422634D01*
X3442461Y11394947D01*
X3433063Y11348720D01*
X3433063Y11321034D01*
X3442461Y11274805D01*
X3460750Y11247120D01*
X3488690Y11237976D01*
X3506977Y11237976D01*
X3534663Y11247120D01*
X3553206Y11274805D01*
X3562350Y11321034D01*
X3562350Y11348720D01*
X3553206Y11394947D01*
X3534663Y11422634D01*
X3506977Y11431778D01*
X3488690Y11431778D01*
X3623309Y11394947D02*
G01*
X3641852Y11404092D01*
X3669538Y11431778D01*
X3669538Y11237976D01*
X3730497Y11431778D02*
G01*
X3730497Y11237976D01*
X3730497Y11431778D02*
G01*
X3813809Y11431778D01*
X3841495Y11422634D01*
X3850640Y11413489D01*
X3859784Y11394947D01*
X3859784Y11376405D01*
X3850640Y11357863D01*
X3841495Y11348720D01*
X3813809Y11339576D01*
X3730497Y11339576D01*
X3795268Y11339576D02*
G01*
X3859784Y11237976D01*
X3920743Y11431778D02*
G01*
X3920743Y11237976D01*
X3920743Y11431778D02*
G01*
X4040886Y11431778D01*
X3920743Y11339576D02*
G01*
X3994658Y11339576D01*
X3920743Y11237976D02*
G01*
X4040886Y11237976D01*
X4166615Y11431778D02*
G01*
X4166615Y11237976D01*
X4101845Y11431778D02*
G01*
X4231131Y11431778D01*
X4403090Y11404092D02*
G01*
X4393691Y11422634D01*
X4366006Y11431778D01*
X4347463Y11431778D01*
X4319777Y11422634D01*
X4301490Y11394947D01*
X4292091Y11348720D01*
X4292091Y11302492D01*
X4301490Y11265662D01*
X4319777Y11247120D01*
X4347463Y11237976D01*
X4356861Y11237976D01*
X4384547Y11247120D01*
X4403090Y11265662D01*
X4412234Y11293347D01*
X4412234Y11302492D01*
X4403090Y11330178D01*
X4384547Y11348720D01*
X4356861Y11357863D01*
X4347463Y11357863D01*
X4319777Y11348720D01*
X4301490Y11330178D01*
X4292091Y11302492D01*
X4615434Y11431778D02*
G01*
X4615434Y11237976D01*
X4615434Y11431778D02*
G01*
X4744720Y11237976D01*
X4744720Y11431778D02*
G01*
X4744720Y11237976D01*
X4805679Y11431778D02*
G01*
X4805679Y11293347D01*
X4814824Y11265662D01*
X4833365Y11247120D01*
X4861052Y11237976D01*
X4879593Y11237976D01*
X4907279Y11247120D01*
X4925822Y11265662D01*
X4934965Y11293347D01*
X4934965Y11431778D01*
X5134609Y11385550D02*
G01*
X5125211Y11404092D01*
X5106670Y11422634D01*
X5088381Y11431778D01*
X5051297Y11431778D01*
X5033009Y11422634D01*
X5014468Y11404092D01*
X5005070Y11385550D01*
X4995925Y11357863D01*
X4995925Y11311889D01*
X5005070Y11283950D01*
X5014468Y11265662D01*
X5033009Y11247120D01*
X5051297Y11237976D01*
X5088381Y11237976D01*
X5106670Y11247120D01*
X5125211Y11265662D01*
X5134609Y11283950D01*
X5195570Y11431778D02*
G01*
X5195570Y11237976D01*
X5195570Y11237976D02*
G01*
X5306313Y11237976D01*
X5367274Y11431778D02*
G01*
X5367274Y11237976D01*
X5367274Y11431778D02*
G01*
X5487415Y11431778D01*
X5367274Y11339576D02*
G01*
X5441188Y11339576D01*
X5367274Y11237976D02*
G01*
X5487415Y11237976D01*
X5603747Y11431778D02*
G01*
X5585206Y11422634D01*
X5566663Y11404092D01*
X5557520Y11385550D01*
X5548375Y11357863D01*
X5548375Y11311889D01*
X5557520Y11283950D01*
X5566663Y11265662D01*
X5585206Y11247120D01*
X5603747Y11237976D01*
X5640577Y11237976D01*
X5659120Y11247120D01*
X5677661Y11265662D01*
X5686806Y11283950D01*
X5695950Y11311889D01*
X5695950Y11357863D01*
X5686806Y11385550D01*
X5677661Y11404092D01*
X5659120Y11422634D01*
X5640577Y11431778D01*
X5603747Y11431778D01*
X2221229Y11053063D02*
G01*
X2212086Y11071605D01*
X2193543Y11080750D01*
X2165858Y11080750D01*
X2147570Y11071605D01*
X2138172Y11062462D01*
X2129027Y11034776D01*
X2129027Y11007089D01*
X2138172Y10988547D01*
X2156713Y10979150D01*
X2184400Y10979150D01*
X2202941Y10988547D01*
X2212086Y11007089D01*
X2165858Y11080750D02*
G01*
X2147570Y11062462D01*
X2138172Y11034776D01*
X2138172Y11007089D01*
X2147570Y10988547D01*
X2156713Y10979150D01*
X2221229Y11080750D02*
G01*
X2212086Y11007089D01*
X2212086Y10988547D01*
X2230627Y10979150D01*
X2249170Y10979150D01*
X2267458Y10997692D01*
X2276856Y11025378D01*
X2276856Y11043920D01*
X2267458Y11071605D01*
X2258313Y11090147D01*
X2239772Y11108689D01*
X2221229Y11117834D01*
X2193543Y11126978D01*
X2165858Y11126978D01*
X2138172Y11117834D01*
X2119629Y11108689D01*
X2101341Y11090147D01*
X2091943Y11071605D01*
X2082800Y11043920D01*
X2082800Y11016234D01*
X2091943Y10988547D01*
X2101341Y10970005D01*
X2119629Y10951463D01*
X2138172Y10942320D01*
X2165858Y10933176D01*
X2193543Y10933176D01*
X2221229Y10942320D01*
X2239772Y10951463D01*
X2249170Y10960862D01*
X2230627Y11080750D02*
G01*
X2221229Y11007089D01*
X2221229Y10988547D01*
X2230627Y10979150D01*
X2480056Y11126978D02*
G01*
X2480056Y10933176D01*
X2480056Y11126978D02*
G01*
X2544572Y11126978D01*
X2572258Y11117834D01*
X2590800Y11099292D01*
X2599943Y11080750D01*
X2609341Y11053063D01*
X2609341Y11007089D01*
X2599943Y10979150D01*
X2590800Y10960862D01*
X2572258Y10942320D01*
X2544572Y10933176D01*
X2480056Y10933176D01*
X2670302Y11007089D02*
G01*
X2781045Y11007089D01*
X2781045Y11025378D01*
X2771902Y11043920D01*
X2762504Y11053063D01*
X2744215Y11062462D01*
X2716529Y11062462D01*
X2697988Y11053063D01*
X2679445Y11034776D01*
X2670302Y11007089D01*
X2670302Y10988547D01*
X2679445Y10960862D01*
X2697988Y10942320D01*
X2716529Y10933176D01*
X2744215Y10933176D01*
X2762504Y10942320D01*
X2781045Y10960862D01*
X2943606Y11034776D02*
G01*
X2934461Y11053063D01*
X2906775Y11062462D01*
X2879090Y11062462D01*
X2851150Y11053063D01*
X2842006Y11034776D01*
X2851150Y11016234D01*
X2869691Y11007089D01*
X2915920Y10997692D01*
X2934461Y10988547D01*
X2943606Y10970005D01*
X2943606Y10960862D01*
X2934461Y10942320D01*
X2906775Y10933176D01*
X2879090Y10933176D01*
X2851150Y10942320D01*
X2842006Y10960862D01*
X3004565Y11126978D02*
G01*
X3013709Y11117834D01*
X3023108Y11126978D01*
X3013709Y11136376D01*
X3004565Y11126978D01*
X3013709Y11062462D02*
G01*
X3013709Y10933176D01*
X3194811Y11062462D02*
G01*
X3194811Y10914634D01*
X3185668Y10886947D01*
X3176270Y10877550D01*
X3157981Y10868405D01*
X3130295Y10868405D01*
X3111754Y10877550D01*
X3194811Y11034776D02*
G01*
X3176270Y11053063D01*
X3157981Y11062462D01*
X3130295Y11062462D01*
X3111754Y11053063D01*
X3093211Y11034776D01*
X3084068Y11007089D01*
X3084068Y10988547D01*
X3093211Y10960862D01*
X3111754Y10942320D01*
X3130295Y10933176D01*
X3157981Y10933176D01*
X3176270Y10942320D01*
X3194811Y10960862D01*
X3255772Y11062462D02*
G01*
X3255772Y10933176D01*
X3255772Y11025378D02*
G01*
X3283458Y11053063D01*
X3302000Y11062462D01*
X3329686Y11062462D01*
X3348227Y11053063D01*
X3357372Y11025378D01*
X3357372Y10933176D01*
X3418331Y11007089D02*
G01*
X3529329Y11007089D01*
X3529329Y11025378D01*
X3519931Y11043920D01*
X3510788Y11053063D01*
X3492245Y11062462D01*
X3464559Y11062462D01*
X3446018Y11053063D01*
X3427729Y11034776D01*
X3418331Y11007089D01*
X3418331Y10988547D01*
X3427729Y10960862D01*
X3446018Y10942320D01*
X3464559Y10933176D01*
X3492245Y10933176D01*
X3510788Y10942320D01*
X3529329Y10960862D01*
X3701034Y11126978D02*
G01*
X3701034Y10933176D01*
X3701034Y11034776D02*
G01*
X3682491Y11053063D01*
X3663950Y11062462D01*
X3636263Y11062462D01*
X3617975Y11053063D01*
X3599434Y11034776D01*
X3590290Y11007089D01*
X3590290Y10988547D01*
X3599434Y10960862D01*
X3617975Y10942320D01*
X3636263Y10933176D01*
X3663950Y10933176D01*
X3682491Y10942320D01*
X3701034Y10960862D01*
X3904234Y11126978D02*
G01*
X3904234Y10933176D01*
X3904234Y11034776D02*
G01*
X3922775Y11053063D01*
X3941063Y11062462D01*
X3968750Y11062462D01*
X3987291Y11053063D01*
X4005834Y11034776D01*
X4014977Y11007089D01*
X4014977Y10988547D01*
X4005834Y10960862D01*
X3987291Y10942320D01*
X3968750Y10933176D01*
X3941063Y10933176D01*
X3922775Y10942320D01*
X3904234Y10960862D01*
X4085336Y11062462D02*
G01*
X4140708Y10933176D01*
X4196079Y11062462D02*
G01*
X4140708Y10933176D01*
X4122165Y10896092D01*
X4103624Y10877550D01*
X4085336Y10868405D01*
X4075938Y10868405D01*
X4399279Y11126978D02*
G01*
X4399279Y10933176D01*
X4399279Y11126978D02*
G01*
X4528565Y10933176D01*
X4528565Y11126978D02*
G01*
X4528565Y10933176D01*
X4589525Y11126978D02*
G01*
X4598670Y11117834D01*
X4608068Y11126978D01*
X4598670Y11136376D01*
X4589525Y11126978D01*
X4598670Y11062462D02*
G01*
X4598670Y10933176D01*
X4696713Y11126978D02*
G01*
X4696713Y10970005D01*
X4705858Y10942320D01*
X4724400Y10933176D01*
X4742941Y10933176D01*
X4669027Y11062462D02*
G01*
X4733543Y11062462D01*
X4803902Y11126978D02*
G01*
X4813045Y11117834D01*
X4822190Y11126978D01*
X4813045Y11136376D01*
X4803902Y11126978D01*
X4813045Y11062462D02*
G01*
X4813045Y10933176D01*
X4883150Y11062462D02*
G01*
X4883150Y10933176D01*
X4883150Y11025378D02*
G01*
X4911090Y11053063D01*
X4929377Y11062462D01*
X4957063Y11062462D01*
X4975606Y11053063D01*
X4984750Y11025378D01*
X4984750Y10933176D01*
X5326634Y11080750D02*
G01*
X5317490Y11099292D01*
X5298947Y11117834D01*
X5280406Y11126978D01*
X5243575Y11126978D01*
X5225034Y11117834D01*
X5206491Y11099292D01*
X5197347Y11080750D01*
X5187950Y11053063D01*
X5187950Y11007089D01*
X5197347Y10979150D01*
X5206491Y10960862D01*
X5225034Y10942320D01*
X5243575Y10933176D01*
X5280406Y10933176D01*
X5298947Y10942320D01*
X5317490Y10960862D01*
X5326634Y10979150D01*
X5326634Y11007089D01*
X5280406Y11007089D02*
G01*
X5326634Y11007089D01*
X5498338Y11062462D02*
G01*
X5498338Y10933176D01*
X5498338Y11034776D02*
G01*
X5480050Y11053063D01*
X5461508Y11062462D01*
X5433822Y11062462D01*
X5415279Y11053063D01*
X5396738Y11034776D01*
X5387593Y11007089D01*
X5387593Y10988547D01*
X5396738Y10960862D01*
X5415279Y10942320D01*
X5433822Y10933176D01*
X5461508Y10933176D01*
X5480050Y10942320D01*
X5498338Y10960862D01*
X5559297Y11126978D02*
G01*
X5568695Y11117834D01*
X5577840Y11126978D01*
X5568695Y11136376D01*
X5559297Y11126978D01*
X5568695Y11062462D02*
G01*
X5568695Y10933176D01*
X5638800Y11126978D02*
G01*
X5638800Y10933176D01*
X5731256Y11062462D02*
G01*
X5638800Y10970005D01*
X5675629Y11007089D02*
G01*
X5740400Y10933176D01*
X5801359Y11062462D02*
G01*
X5838190Y10933176D01*
X5875274Y11062462D02*
G01*
X5838190Y10933176D01*
X5875274Y11062462D02*
G01*
X5912104Y10933176D01*
X5949188Y11062462D02*
G01*
X5912104Y10933176D01*
X6120891Y11062462D02*
G01*
X6120891Y10933176D01*
X6120891Y11034776D02*
G01*
X6102350Y11053063D01*
X6084061Y11062462D01*
X6056375Y11062462D01*
X6037834Y11053063D01*
X6019291Y11034776D01*
X6010147Y11007089D01*
X6010147Y10988547D01*
X6019291Y10960862D01*
X6037834Y10942320D01*
X6056375Y10933176D01*
X6084061Y10933176D01*
X6102350Y10942320D01*
X6120891Y10960862D01*
X6292850Y11126978D02*
G01*
X6292850Y10933176D01*
X6292850Y11034776D02*
G01*
X6274308Y11053063D01*
X6255765Y11062462D01*
X6228079Y11062462D01*
X6209538Y11053063D01*
X6191250Y11034776D01*
X6181852Y11007089D01*
X6181852Y10988547D01*
X6191250Y10960862D01*
X6209538Y10942320D01*
X6228079Y10933176D01*
X6255765Y10933176D01*
X6274308Y10942320D01*
X6292850Y10960862D01*
G36*
X8140700Y11393220D02*
G01*
X8121802Y11392814D01*
X8102904Y11391544D01*
X8084108Y11389512D01*
X8065414Y11386616D01*
X8046872Y11382959D01*
X8028482Y11378488D01*
X8010296Y11373205D01*
X7992414Y11367160D01*
X7974787Y11360302D01*
X7957464Y11352733D01*
X7940446Y11344351D01*
X7923885Y11335308D01*
X7907680Y11325504D01*
X7891932Y11315039D01*
X7876641Y11303914D01*
X7861858Y11292078D01*
X7847634Y11279632D01*
X7840725Y11273180D01*
X8440674Y11273180D01*
X8426704Y11285931D01*
X8412226Y11298072D01*
X8397189Y11309553D01*
X8381644Y11320373D01*
X8365693Y11330482D01*
X8349284Y11339931D01*
X8332470Y11348618D01*
X8315350Y11356594D01*
X8297875Y11363807D01*
X8280095Y11370259D01*
X8262010Y11375948D01*
X8243773Y11380825D01*
X8225281Y11384889D01*
X8206638Y11388191D01*
X8187893Y11390630D01*
X8169046Y11392255D01*
X8150148Y11393119D01*
G37*
D22*
X1181100Y7353300D02*
G01*
X1790700Y7353300D01*
X2095500Y7353300D01*
X2705100Y7353300D01*
X2705100Y7200900D01*
X2705100Y6565900D01*
X2260600Y6565900D01*
X2133600Y6565900D01*
X2006600Y6565900D01*
X1879600Y6565900D01*
X1752600Y6565900D01*
X1625600Y6565900D01*
X1181100Y6565900D01*
X1181100Y7200900D01*
X1181100Y7353300D01*
X1879600Y6565900D02*
G01*
X1879600Y6908800D01*
X2006600Y6908800D01*
X2006600Y6565900D01*
X1625600Y6565900D02*
G01*
X1625600Y6908800D01*
X1752600Y6908800D01*
X1752600Y6565900D01*
X2133600Y6565900D02*
G01*
X2133600Y6908800D01*
X2260600Y6908800D01*
X2260600Y6565900D01*
X1181100Y7200900D02*
G01*
X1790700Y7200900D01*
X2095500Y7200900D01*
X2705100Y7200900D01*
X1790700Y7200900D02*
G01*
X1790700Y7353300D01*
X2095500Y7200900D02*
G01*
X2095500Y7353300D01*
D10*
X8020700Y10778200D02*
G01*
X8020700Y10653740D01*
X8088010Y10715970D02*
G01*
X7953390Y10715970D01*
D23*
X4005021Y7630139D02*
G01*
X4100908Y7630139D01*
X4100908Y7762260D01*
X4005021Y7762260D01*
X3919778Y7630139D02*
G01*
X3823891Y7630139D01*
X3823891Y7762260D01*
X3919778Y7762260D01*
D10*
X7104913Y7819186D02*
G01*
X7804911Y7819186D01*
X7804911Y7319187D01*
X7104913Y7319187D01*
X7104913Y7819186D01*
X6266713Y7806486D02*
G01*
X6966711Y7806486D01*
X6966711Y7306487D01*
X6266713Y7306487D01*
X6266713Y7806486D01*
X9083598Y10037709D02*
G01*
X9083598Y10277414D01*
X9083598Y9537710D02*
G01*
X9083598Y9817089D01*
X7883611Y9317093D02*
G01*
X7883611Y9077401D01*
X9083598Y9077401D01*
X9083598Y9317090D01*
X7883611Y9817092D02*
G01*
X7883611Y9537707D01*
X7883611Y10277414D02*
G01*
X7883611Y10037706D01*
X9083606Y10277414D02*
G01*
X7883611Y10277414D01*
X8333600Y9827399D02*
G01*
X8633599Y9827399D01*
X8633599Y9527400D01*
X8333600Y9527400D01*
X8333600Y9827399D01*
X9096298Y8640709D02*
G01*
X9096298Y8880414D01*
X9096298Y8140710D02*
G01*
X9096298Y8420089D01*
X7896311Y7920093D02*
G01*
X7896311Y7680401D01*
X9096298Y7680401D01*
X9096298Y7920090D01*
X7896311Y8420092D02*
G01*
X7896311Y8140707D01*
X7896311Y8880414D02*
G01*
X7896311Y8640706D01*
X9096306Y8880414D02*
G01*
X7896311Y8880414D01*
X8346300Y8430399D02*
G01*
X8646299Y8430399D01*
X8646299Y8130400D01*
X8346300Y8130400D01*
X8346300Y8430399D01*
X1778000Y12598654D02*
G01*
X6364224Y12598654D01*
X6407988Y12598400D01*
X6407911Y12598654D01*
X1778000Y7968411D02*
G01*
X1778000Y12598654D01*
X6407988Y7968411D02*
G01*
X6407988Y12598552D01*
X1778127Y7968411D02*
G01*
X6407988Y7968411D01*
X965149Y4567453D02*
G01*
X965149Y867435D01*
X8965285Y867435D01*
X8965285Y4567453D01*
X965149Y4567453D01*
X1265301Y3767201D02*
G01*
X8665286Y3767201D01*
X8665286Y1667205D01*
X1265301Y1667205D01*
X1265301Y3767201D01*
X965301Y4567199D02*
G01*
X8965285Y4567199D01*
X6921500Y7899400D02*
G01*
X6946900Y7899400D01*
X6946900Y7874000D01*
X6921500Y7874000D01*
X6921500Y7899400D01*
G75*
G01*
X7740650Y10998454D02*
G03*
X7740650Y11005566I399984J3556D01*
G75*
G01
X8554339Y9677400D02*
G03X8554339Y9677400I-70714J0D01*
G75*
G01
X8749386Y9677400D02*
G03X8749386Y9677400I-265760J0D01*
G75*
G01
X9012707Y10127386D02*
G03X9012707Y10127386I-79096J0D01*
G75*
G01
X9012707Y9227388D02*
G03X9012707Y9227388I-79096J0D01*
G75*
G01
X8112709Y9227388D02*
G03X8112709Y9227388I-79096J0D01*
G75*
G01
X8112709Y10127386D02*
G03X8112709Y10127386I-79096J0D01*
G75*
G01
X8567039Y8280400D02*
G03X8567039Y8280400I-70714J0D01*
G75*
G01
X8762086Y8280400D02*
G03X8762086Y8280400I-265760J0D01*
G75*
G01
X9025407Y8730386D02*
G03X9025407Y8730386I-79096J0D01*
G75*
G01
X9025407Y7830388D02*
G03X9025407Y7830388I-79096J0D01*
G75*
G01
X8125409Y7830388D02*
G03X8125409Y7830388I-79096J0D01*
G75*
G01
X8125409Y8730386D02*
G03X8125409Y8730386I-79096J0D01*
M02*
