G04 Layer: BottomLayer*
G04 EasyEDA v6.4.25, 2021-10-17T04:34:47+09:00*
G04 29e239aed29846d893758c3e788ce2c8,c0f7d9c09faf4ba5b776d912e3b4b3b7,10*
G04 Gerber Generator version 0.2*
G04 Scale: 100 percent, Rotated: No, Reflected: No *
G04 Dimensions in millimeters *
G04 leading zeros omitted , absolute positions ,4 integer and 5 decimal *
%FSLAX45Y45*%
%MOMM*%

%ADD10C,0.2540*%
%ADD11C,0.6096*%
%ADD14C,1.3081*%
%ADD15C,1.6000*%
%ADD16C,1.8000*%
%ADD17C,0.8000*%
%ADD18C,1.5240*%
%ADD20C,1.8800*%
%ADD21C,1.6500*%

%LPD*%
D10*
X5205475Y7178802D02*
G01*
X6007100Y7980426D01*
X6007100Y10236200D01*
X7150100Y11379200D01*
X5459602Y7178708D02*
G01*
X6921500Y8640605D01*
X6921500Y10960100D01*
X6959600Y10998200D01*
X7302500Y10998200D01*
X7302500Y11023600D01*
X7404100Y11125200D01*
X3935475Y4998720D02*
G01*
X3935475Y5713729D01*
X5295900Y7073900D01*
X5295900Y7137400D01*
X5511800Y7353300D01*
X5511800Y7378700D01*
X6057900Y7924800D01*
X6057900Y8915400D01*
X6845300Y9702800D01*
X4951602Y4998702D02*
G01*
X4951602Y6386703D01*
X7150100Y8585200D01*
X3892041Y8068310D02*
G01*
X3892041Y7696200D01*
X2159000Y7696200D01*
X1562100Y7099300D01*
X6791706Y12623800D02*
G01*
X4271515Y12623800D01*
X4146041Y12498326D01*
X7404100Y9093200D02*
G01*
X7594600Y8902700D01*
X7594600Y8307095D01*
X7871294Y8030400D01*
X6791706Y12623800D02*
G01*
X6791706Y10459971D01*
X4400041Y8068307D01*
X3892041Y12498324D02*
G01*
X3892041Y10915142D01*
X3594100Y10617200D01*
X3594100Y10109200D01*
X4146041Y9557258D01*
X4146041Y8068310D01*
X3892041Y8068310D02*
G01*
X3892041Y8033258D01*
X4013200Y7912100D01*
X4305300Y7912100D01*
X4400041Y8006842D01*
X4400041Y8068310D01*
X8140700Y11173205D02*
G01*
X8140700Y11925300D01*
X7556500Y12509500D01*
X6906006Y12509500D01*
X6791706Y12623800D01*
G36*
X1496695Y7164704D02*
G01*
X1627504Y7164704D01*
X1627504Y7033895D01*
X1496695Y7033895D01*
G37*
D14*
G01*
X1816100Y7099300D03*
G01*
X2070100Y7099300D03*
G01*
X2324100Y7099300D03*
D15*
G01*
X8140700Y11173205D03*
G01*
X8140700Y10823194D03*
G01*
X7329906Y7669199D03*
G01*
X7579893Y7469200D03*
G01*
X6491706Y7656499D03*
G01*
X6741693Y7456500D03*
D16*
G01*
X7858607Y9927386D03*
G01*
X9108617Y9927386D03*
G01*
X7858607Y9427387D03*
G01*
X9108617Y9427387D03*
G01*
X7871307Y8530386D03*
G01*
X9121317Y8530386D03*
G01*
X7871307Y8030387D03*
G01*
X9121317Y8030387D03*
D17*
G01*
X3935602Y7178700D03*
G01*
X4951602Y7178700D03*
G01*
X4697602Y7178700D03*
G01*
X4443602Y7178700D03*
G01*
X4189602Y7178700D03*
G01*
X3935602Y4998694D03*
G01*
X4951602Y4998694D03*
G01*
X4697602Y4998694D03*
G01*
X4443602Y4998694D03*
G01*
X4189602Y4998694D03*
G01*
X5459602Y4998694D03*
G01*
X5205602Y4998694D03*
G01*
X5459602Y7178700D03*
G01*
X5205602Y7178700D03*
D18*
G01*
X9327794Y5906998D03*
G01*
X9327794Y6160998D03*
G01*
X9327794Y6414998D03*
G01*
X9327794Y6668998D03*
G01*
X6377787Y5657011D03*
G01*
X6377787Y5911011D03*
G01*
X6377787Y6165011D03*
G01*
X6377787Y6419011D03*
G01*
X9327794Y5652998D03*
G01*
X3638041Y12498324D03*
G01*
X3892041Y12498324D03*
G01*
X4146041Y12498324D03*
G36*
X4323791Y12574600D02*
G01*
X4476191Y12574600D01*
X4476191Y12422200D01*
X4323791Y12422200D01*
G37*
G36*
X3561791Y8144611D02*
G01*
X3714191Y8144611D01*
X3714191Y7992211D01*
X3561791Y7992211D01*
G37*
G01*
X3892041Y8068310D03*
G01*
X4146041Y8068310D03*
G01*
X4400041Y8068310D03*
D20*
G01*
X1765300Y3632200D03*
G01*
X1765300Y3378200D03*
G01*
X1765300Y3124200D03*
G01*
X1765300Y2870200D03*
D21*
G01*
X1066800Y12649200D03*
G01*
X1320800Y12649200D03*
G01*
X1066800Y12395200D03*
G01*
X1320800Y12395200D03*
G01*
X1054100Y12141200D03*
G01*
X1320800Y12141200D03*
G01*
X1066800Y11887200D03*
G01*
X1320800Y11874500D03*
G01*
X1066800Y11633200D03*
G01*
X1320800Y11633200D03*
G01*
X1066800Y11379200D03*
G01*
X1320800Y11379200D03*
G01*
X1066800Y11125200D03*
G01*
X1320800Y11125200D03*
G01*
X1066800Y10871200D03*
G01*
X1320800Y10871200D03*
G01*
X1066800Y10617200D03*
G01*
X1333500Y10617200D03*
G01*
X1066800Y10363200D03*
G01*
X1320800Y10363200D03*
G01*
X1066800Y10109200D03*
G01*
X1320800Y10109200D03*
G01*
X1066800Y9855200D03*
G01*
X1320800Y9855200D03*
G01*
X1066800Y9601200D03*
G01*
X1333500Y9601200D03*
G01*
X1066800Y9347200D03*
G01*
X1320800Y9347200D03*
G01*
X1066800Y9093200D03*
G01*
X1320800Y9093200D03*
G01*
X1066800Y8839200D03*
G01*
X1320800Y8839200D03*
G01*
X1066800Y8585200D03*
G01*
X1320800Y8585200D03*
G01*
X1066800Y8331200D03*
G01*
X1320800Y8331200D03*
G01*
X1066800Y8077200D03*
G01*
X1320800Y8077200D03*
G01*
X7150100Y12649200D03*
G01*
X7404100Y12649200D03*
G01*
X7137400Y12395200D03*
G01*
X7404100Y12395200D03*
G01*
X7150100Y12141200D03*
G01*
X7404100Y12141200D03*
G01*
X7150100Y11887200D03*
G01*
X7404100Y11887200D03*
G01*
X7150100Y11633200D03*
G01*
X7404100Y11633200D03*
G01*
X7150100Y11379200D03*
G01*
X7404100Y11379200D03*
G01*
X7150100Y11125200D03*
G01*
X7404100Y11125200D03*
G01*
X7150100Y10871200D03*
G01*
X7404100Y10871200D03*
G01*
X7150100Y10617200D03*
G01*
X7404100Y10617200D03*
G01*
X7150100Y10363200D03*
G01*
X7404100Y10363200D03*
G01*
X7150100Y10109200D03*
G01*
X7404100Y10109200D03*
G01*
X7150100Y9855200D03*
G01*
X7404100Y9855200D03*
G01*
X7150100Y9601200D03*
G01*
X7404100Y9601200D03*
G01*
X7150100Y9347200D03*
G01*
X7404100Y9347200D03*
G01*
X7150100Y9093200D03*
G01*
X7404100Y9093200D03*
G01*
X7150100Y8839200D03*
G01*
X7404100Y8839200D03*
G01*
X7150100Y8585200D03*
G01*
X7404100Y8585200D03*
G01*
X7150100Y8331200D03*
G01*
X7404100Y8331200D03*
G01*
X7150100Y8077200D03*
G01*
X7416800Y8077200D03*
D11*
G01*
X6845300Y9702800D03*
G01*
X7759700Y6959600D03*
M02*
